#tb 0: 1/25
#media_type 0: video
#codec_id 0: rawvideo
#dimensions 0: 352x288
#sar 0: 0/1
0,          0,          0,        1,   811008, 0x6f1c12b9
0,          1,          1,        1,   811008, 0x9db5274d
0,          2,          2,        1,   811008, 0xbfc4a4ac
0,          3,          3,        1,   811008, 0x6e2db0e3
0,          4,          4,        1,   811008, 0x0607ef17
0,          5,          5,        1,   811008, 0x46f5e3b0
0,          6,          6,        1,   811008, 0x0b4e989a
0,          7,          7,        1,   811008, 0x7fd5eac6
0,          8,          8,        1,   811008, 0xa1e47c7b
0,          9,          9,        1,   811008, 0x43c964fc
0,         10,         10,        1,   811008, 0xdf634cf7
0,         11,         11,        1,   811008, 0x852d0278
0,         12,         12,        1,   811008, 0x8ee622f4
0,         13,         13,        1,   811008, 0xf28f6aa8
0,         14,         14,        1,   811008, 0xd4d75ef7
0,         15,         15,        1,   811008, 0x17870ab1
0,         16,         16,        1,   811008, 0x35e7cc5b
0,         17,         17,        1,   811008, 0xbb9c4aae
0,         18,         18,        1,   811008, 0x53fee268
0,         19,         19,        1,   811008, 0xbc66b6ec
0,         20,         20,        1,   811008, 0x9aca2167
0,         21,         21,        1,   811008, 0x93ab4e14
0,         22,         22,        1,   811008, 0x392e42a8
0,         23,         23,        1,   811008, 0xc52534db
0,         24,         24,        1,   811008, 0xe5b18134
0,         25,         25,        1,   811008, 0x223356e9
0,         26,         26,        1,   811008, 0x80b89917
0,         27,         27,        1,   811008, 0x2b5fde7f
0,         28,         28,        1,   811008, 0x17dbb78f
0,         29,         29,        1,   811008, 0xc9e809de
0,         30,         30,        1,   811008, 0xbaf2871b
0,         31,         31,        1,   811008, 0x2e6d2d1f
0,         32,         32,        1,   811008, 0x12feb207
0,         33,         33,        1,   811008, 0x99cf3ba4
0,         34,         34,        1,   811008, 0x2651ea0e
0,         35,         35,        1,   811008, 0xc28695ff
0,         36,         36,        1,   811008, 0xe241cbdf
0,         37,         37,        1,   811008, 0x6e374aa5
0,         38,         38,        1,   811008, 0x9a1e6c76
0,         39,         39,        1,   811008, 0xccc1f9f4
0,         40,         40,        1,   811008, 0xa28bb568
0,         41,         41,        1,   811008, 0x38d454ef
0,         42,         42,        1,   811008, 0x3e38cf65
0,         43,         43,        1,   811008, 0x85158caf
0,         44,         44,        1,   811008, 0xeb55f6b2
0,         45,         45,        1,   811008, 0x73e686a3
0,         46,         46,        1,   811008, 0xdc94c290
0,         47,         47,        1,   811008, 0x81e62115
0,         48,         48,        1,   811008, 0xf90bf80e
0,         49,         49,        1,   811008, 0x44e8c18d
